<svg fill="none" height="41.999992" viewBox="0 0 80 41.99999237" width="80" xmlns="http://www.w3.org/2000/svg"><path d="m8.31723 16.6007c2.26757.0648 4.45667-.8353 6.02557-2.4775l.221-.2216-.221-.2215-2.5068-2.4542-.221-.2099-.2152.2157c-.825.7951-1.93914 1.2164-3.08257 1.1659-2.74527 0-3.9725-2.0637-3.9725-4.08069 0-2.44843 1.65765-4.16232 4.03067-4.16232 1.04388.01594 2.0464.41165 2.8209 1.11345l.2268.20404.2036-.21569 2.3555-2.48341.2094-.22153-.2152-.21569c-1.4671-1.552339-3.5269-2.4010867-5.65917-2.33182895-5.05432 0-8.31723 3.26456895-8.31723 8.30714895 0 5.04262 3.26291 8.28962 8.31723 8.28962zm14.93607 0h.0873c1.7648-.0215 3.4448-.7624 4.653-2.052l.1105 1.3059v.2856h4.1063v-15.739846h-4.1761v.291479l-.0698 1.218377c-1.1864-1.233713-2.8333-1.91426884-4.5425-1.8771213h-.0814c-4.9148 0-8.0904 3.2237513-8.0904 8.2138713 0 5.15914 3.0651 8.35374 8.0031 8.35374zm.5002-12.59184c1.168-.04191 2.2932.44382 3.0652 1.32331.6816.82925 1.0447 1.87556 1.0236 2.94976 0 2.05197-1.2795 4.26727-4.0713 4.26727-2.4836 0-4.1528-1.7197-4.1528-4.28475 0-2.56501 1.6518-4.25559 4.1353-4.25559zm29.1278-3.806738c-1.9743-.1044123-3.8628.818878-4.9961 2.442588-.8666-1.62062-2.4487-2.500888-4.5076-2.500888-1.4337-.0774596-2.8254.498951-3.7864 1.568158l-.157-1.060987-.0408-.262338h-4.0306v15.739845h4.3505v-8.39458c0-1.74887.9946-3.49774 2.9082-3.49774 1.9135 0 2.7801 1.74887 2.7801 3.49774v8.39458h4.3448v-8.39458c0-2.2502 1.4947-3.42779 2.9662-3.42779 2.2858 0 2.5301 2.33183 2.5301 3.36366v8.45871h4.3506v-8.44704c-.0117-4.82105-2.3905-7.479338-6.712-7.479338zm14.5231 14.737178c1.2156 1.1659 3.1466 1.5973 4.7053 1.5973 2.1913.071 4.3082-.801 5.8163-2.3959 1.392-1.6161 2.1306-3.6955 2.0706-5.82961 0-4.75694-3.3793-8.2138743-8.0381-8.2138743-1.7513-.0042344-3.4298.7023503-4.653 1.9587243l-.157-1.346626-.0349-.27399h-4.0714v18.940276h4.3448zm4.304-10.59234c2.2239-.10752 4.0627 1.71664 3.9783 3.94664.0863 2.2571-1.716 4.1339-3.9695 4.1339-2.2536 0-4.0559-1.8768-3.9696-4.1339-.1051-2.2356 1.7302-4.07779 3.9608-3.97578zm-41.2604 21.27794c-4.6995 0-8.102 3.4394-8.102 8.1614 0 4.7219 3.3443 8.1614 8.1427 8.1614s8.1428-3.3695 8.1428-8.1614-3.4374-8.1614-8.1835-8.1614zm0 12.3179c-1.8844 0-3.7863-1.2767-3.7863-4.1332s1.96-4.1623 3.7863-4.1623c2.373 0 3.7864 2.1161 3.7864 4.1623.0291 2.8565-1.8728 4.1332-3.7573 4.1332zm20.6012-12.3179c-4.6938 0-8.1021 3.4394-8.1021 8.1614 0 4.7219 3.3444 8.1614 8.1428 8.1614s8.1427-3.3695 8.1427-8.1614-3.4374-8.1614-8.1834-8.1614zm.029 12.3179c-1.8844 0-3.7863-1.2767-3.7863-4.1332s1.9659-4.1623 3.7863-4.1623c2.3731 0 3.7864 2.1161 3.7864 4.1623 0 2.8565-1.9019 4.1332-3.7864 4.1332zm-41.20222-12.3762c-1.71726.0387-3.36548.6851-4.65299 1.8247v-4.1098h-4.350553v18.3748h4.071383l.02905-.274.15704-1.3117c1.19306 1.2962 2.89514 2 4.65299 1.9238 4.8275 0 8.0729-3.3054 8.0729-8.2139.0001-5.0717-3.0593-8.2139-7.97982-8.2139zm-.33734 12.3413c-2.26783 0-4.10627-1.8427-4.10627-4.1157s1.83844-4.1157 4.10627-4.1157c2.32646 0 3.97246 1.6848 3.97246 4.0807.1323 2.2782-1.6959 4.1884-3.97246 4.1507zm61.36716-4.5646 3.6235-4.0632.4304-.4839 1.9834-2.221.57-.6471h-.57-4.9148l-.093.1107-4.5309 5.4157v-8.173h-4.3447v18.06.3148h.3083 3.7282.3082v-.3148-5.9986l3.4141 3.9582 2.0357 2.3552h.1396 4.496.3082.6457l-2.3963-2.6408z" fill="#231815"/></svg>