<svg xmlns="http://www.w3.org/2000/svg" xmlns:xlink="http://www.w3.org/1999/xlink" fill="none" version="1.1" width="80" height="41.99999237060547" viewBox="0 0 80 41.99999237060547"><g><path d="M8.31723,16.6007C10.5848,16.6655,12.7739,15.7654,14.3428,14.1232L14.5638,13.9016L14.3428,13.6801L11.836,11.2259L11.615,11.016L11.3998,11.2317C10.5748,12.0268,9.46066,12.4481,8.31723,12.3976C5.57196,12.3976,4.34473,10.3339,4.34473,8.31691C4.34473,5.86848,6.00238,4.15459,8.3754,4.15459C9.41928,4.17053,10.4218,4.56624,11.1963,5.26804L11.4231,5.47208L11.6267,5.25639L13.9822,2.77298L14.1916,2.55145L13.9764,2.33576C12.5093,0.783421,10.4495,-0.0653267,8.31723,0.00393105C3.26291,0.00393105,0,3.2685,0,8.31108C0,13.3537,3.26291,16.6007,8.31723,16.6007ZM23.2533,16.6007L23.3406,16.6007C25.1054,16.5792,26.7854,15.8383,27.9936,14.5487L28.1041,15.8546L28.1041,16.1402L32.2104,16.1402L32.2104,0.400354L28.0343,0.400354L28.0343,0.691833L27.9645,1.91021C26.7781,0.676497,25.1312,-0.00405884,23.422,0.0330887L23.3406,0.0330887C18.4258,0.0330887,15.2502,3.25684,15.2502,8.24696C15.2502,13.4061,18.3153,16.6007,23.2533,16.6007ZM23.7535,4.00886C24.9215,3.96695,26.0467,4.45268,26.8187,5.33217C27.5003,6.16142,27.8634,7.20773,27.8423,8.28193C27.8423,10.3339,26.5628,12.5492,23.771,12.5492C21.2874,12.5492,19.6182,10.8295,19.6182,8.26445C19.6182,5.69944,21.27,4.00886,23.7535,4.00886ZM52.8813,0.202122C50.907,0.0977097,49.0185,1.021,47.8852,2.64471C47.0186,1.02409,45.4365,0.143822,43.3776,0.143822C41.9439,0.0663624,40.5522,0.642773,39.5912,1.71198L39.4342,0.650993L39.3934,0.388655L35.3628,0.388655L35.3628,16.1285L39.7133,16.1285L39.7133,7.73392C39.7133,5.98505,40.7079,4.23618,42.6215,4.23618C44.535,4.23618,45.4016,5.98505,45.4016,7.73392L45.4016,16.1285L49.7464,16.1285L49.7464,7.73392C49.7464,5.48372,51.2411,4.30613,52.7126,4.30613C54.9984,4.30613,55.2427,6.63796,55.2427,7.66979L55.2427,16.1285L59.5933,16.1285L59.5933,7.68146C59.5816,2.86041,57.2028,0.202122,52.8813,0.202122ZM67.4044,14.9393C68.62,16.1052,70.551,16.5366,72.1097,16.5366C74.301,16.6076,76.4179,15.7356,77.926,14.1407C79.318,12.5246,80.0566,10.4452,79.9966,8.31109C79.9966,3.55415,76.6173,0.0972157,71.9585,0.0972157C70.2072,0.0929813,68.5287,0.799566,67.3055,2.05594L67.1485,0.709314L67.1136,0.435324L63.0422,0.435324L63.0422,19.3756L67.387,19.3756L67.4044,14.9393ZM71.7084,4.34696C73.9323,4.23944,75.7711,6.0636,75.6867,8.2936C75.773,10.5507,73.9707,12.4275,71.7172,12.4275C69.4636,12.4275,67.6613,10.5507,67.7476,8.2936C67.6425,6.058,69.4778,4.21581,71.7084,4.31782L71.7084,4.34696ZM30.448,25.6249C25.7485,25.6249,22.346,29.0643,22.346,33.7863C22.346,38.5082,25.6903,41.9477,30.4887,41.9477C35.2871,41.9477,38.6315,38.5782,38.6315,33.7863C38.6315,28.9944,35.1941,25.6249,30.448,25.6249ZM30.448,37.9428C28.5636,37.9428,26.6617,36.6661,26.6617,33.8096C26.6617,30.9531,28.6217,29.6473,30.448,29.6473C32.821,29.6473,34.2344,31.7634,34.2344,33.8096C34.2635,36.6661,32.3616,37.9428,30.4771,37.9428L30.448,37.9428ZM51.0492,25.6249C46.3554,25.6249,42.9471,29.0643,42.9471,33.7863C42.9471,38.5082,46.2915,41.9477,51.0899,41.9477C55.8883,41.9477,59.2326,38.5782,59.2326,33.7863C59.2326,28.9944,55.7952,25.6249,51.0492,25.6249ZM51.0782,37.9428C49.1938,37.9428,47.2919,36.6661,47.2919,33.8096C47.2919,30.9531,49.2578,29.6473,51.0782,29.6473C53.4513,29.6473,54.8646,31.7634,54.8646,33.8096C54.8646,36.6661,52.9627,37.9428,51.0782,37.9428ZM9.87598,25.5666C8.15872,25.6053,6.5105,26.2517,5.22299,27.3913L5.22299,23.2815L0.872437,23.2815L0.872437,41.6563L4.94382,41.6563L4.97287,41.3823L5.12991,40.0706C6.32297,41.3668,8.02505,42.0706,9.7829,41.9944C14.6104,41.9944,17.8558,38.689,17.8558,33.7805C17.8559,28.7088,14.7965,25.5666,9.87598,25.5666ZM9.53864,37.9079C7.27081,37.9079,5.43237,36.0652,5.43237,33.7922C5.43237,31.5192,7.27081,29.6765,9.53864,29.6765C11.8651,29.6765,13.5111,31.3613,13.5111,33.7572C13.6434,36.0354,11.8152,37.9456,9.53864,37.9079ZM70.9058,33.3433L74.5293,29.2801L74.9597,28.7962L76.9431,26.5752L77.5131,25.9281L76.9431,25.9281L72.0283,25.9281L71.9353,26.0388L67.4044,31.4545L67.4044,23.2815L63.0597,23.2815L63.0597,41.3415L63.0597,41.6563L63.368,41.6563L67.0962,41.6563L67.4044,41.6563L67.4044,41.3415L67.4044,35.3429L70.8185,39.3011L72.8542,41.6563L72.9938,41.6563L77.4898,41.6563L77.798,41.6563L78.4437,41.6563L76.0474,39.0155L70.9058,33.3433Z" fill="#231815" fill-opacity="1"/></g></svg>